<mxfile host="app.diagrams.net" modified="2024-06-02T08:59:54.538Z" agent="Mozilla/5.0 (Windows NT 10.0; Win64; x64) AppleWebKit/537.36 (KHTML, like Gecko) Chrome/125.0.0.0 Safari/537.36" version="24.4.13" etag="_fS42BE5GFErQBossFzh" type="github">
  <diagram name="Seite-1" id="PSGgbnLG0dfzEL03MHTG">
    <mxGraphModel>
      <root>
        <mxCell id="0" />
        <mxCell id="1" parent="0" />
      </root>
    </mxGraphModel>
  </diagram>
</mxfile>
